<?xml version="1.0" encoding="utf-8"?>
<!-- Generator: Adobe Illustrator 18.1.1, SVG Export Plug-In . SVG Version: 6.00 Build 0)  -->
<svg version="1.1" id="Layer_2" xmlns="http://www.w3.org/2000/svg" xmlns:xlink="http://www.w3.org/1999/xlink" x="0px" y="0px"
	 viewBox="0 0 612 792" enable-background="new 0 0 612 792" xml:space="preserve">
<g>
	<circle fill="none" stroke="#FFFFFF" stroke-width="2" stroke-miterlimit="10" cx="59.1" cy="82.5" r="19.2"/>
	<circle fill="none" stroke="#FFFFFF" stroke-width="2" stroke-miterlimit="10" cx="59.1" cy="82.5" r="14.4"/>
	<circle fill="none" stroke="#FFFFFF" stroke-width="2" stroke-miterlimit="10" cx="59.1" cy="82.5" r="9.6"/>
	<circle fill="none" stroke="#FFFFFF" stroke-width="2" stroke-miterlimit="10" cx="59.1" cy="82.5" r="4.8"/>
</g>
<g>
	<circle fill="none" stroke="#FF0000" stroke-width="2" stroke-miterlimit="10" cx="59.1" cy="130.6" r="19.2"/>
	<circle fill="none" stroke="#FF0000" stroke-width="2" stroke-miterlimit="10" cx="59.1" cy="130.6" r="14.4"/>
	<circle fill="none" stroke="#FF0000" stroke-width="2" stroke-miterlimit="10" cx="59.1" cy="130.6" r="9.6"/>
	<circle fill="none" stroke="#FF0000" stroke-width="2" stroke-miterlimit="10" cx="59.1" cy="130.6" r="4.8"/>
</g>
<g>
	<polygon fill="none" stroke="#FFFFFF" stroke-width="1.5" stroke-miterlimit="10" points="59.1,163.6 79.4,163.6 69.2,181.2 
		59.1,198.8 48.9,181.2 38.8,163.6 	"/>
	<polygon fill="none" stroke="#FFFFFF" stroke-width="1.5" stroke-miterlimit="10" points="59.1,166.6 74.3,166.6 66.7,179.8 
		59.1,193 51.4,179.8 43.8,166.6 	"/>
	<polygon fill="none" stroke="#FFFFFF" stroke-width="1.5" stroke-miterlimit="10" points="59.1,169.4 69.2,169.4 64.1,178.2 
		59.1,187 54,178.2 48.9,169.4 	"/>
	<polygon fill="none" stroke="#FFFFFF" stroke-width="1.5" stroke-miterlimit="10" points="59.1,172.4 64.1,172.4 61.6,176.8 
		59.1,181.2 56.5,176.8 54,172.4 	"/>
</g>
<g>
	<polygon fill="none" stroke="#FF0000" stroke-width="1.5" stroke-miterlimit="10" points="59.1,208.8 79.4,208.8 69.2,226.4 
		59.1,244 48.9,226.4 38.8,208.8 	"/>
	<polygon fill="none" stroke="#FF0000" stroke-width="1.5" stroke-miterlimit="10" points="59.1,211.8 74.3,211.8 66.7,225 
		59.1,238.1 51.4,225 43.8,211.8 	"/>
	<polygon fill="none" stroke="#FF0000" stroke-width="1.5" stroke-miterlimit="10" points="59.1,214.6 69.2,214.6 64.1,223.4 
		59.1,232.2 54,223.4 48.9,214.6 	"/>
	<polygon fill="none" stroke="#FF0000" stroke-width="1.5" stroke-miterlimit="10" points="59.1,217.6 64.1,217.6 61.6,222 
		59.1,226.4 56.5,222 54,217.6 	"/>
</g>
<g>
	<rect x="40.4" y="260.6" fill="none" stroke="#FFFFFF" stroke-width="2" stroke-miterlimit="10" width="37.3" height="37.3"/>
	<rect x="45.1" y="265.3" fill="none" stroke="#FFFFFF" stroke-width="2" stroke-miterlimit="10" width="28" height="28"/>
	<rect x="49.7" y="270" fill="none" stroke="#FFFFFF" stroke-width="2" stroke-miterlimit="10" width="18.6" height="18.6"/>
	<rect x="54.4" y="274.6" fill="none" stroke="#FFFFFF" stroke-width="2" stroke-miterlimit="10" width="9.3" height="9.3"/>
</g>
<g>
	<rect x="40.4" y="317.6" fill="none" stroke="#FF0000" stroke-width="2" stroke-miterlimit="10" width="37.3" height="37.3"/>
	<rect x="45.1" y="322.3" fill="none" stroke="#FF0000" stroke-width="2" stroke-miterlimit="10" width="28" height="28"/>
	<rect x="49.7" y="327" fill="none" stroke="#FF0000" stroke-width="2" stroke-miterlimit="10" width="18.6" height="18.6"/>
	<rect x="54.4" y="331.6" fill="none" stroke="#FF0000" stroke-width="2" stroke-miterlimit="10" width="9.3" height="9.3"/>
</g>
<g>
	<polygon fill="none" stroke="#FFFFFF" stroke-width="2" stroke-miterlimit="10" points="49,409.6 38.9,392.1 49,374.7 69.1,374.7 
		79.2,392.1 69.1,409.6 	"/>
	<polygon fill="none" stroke="#FFFFFF" stroke-width="2" stroke-miterlimit="10" points="51.5,405.2 43.9,392.1 51.5,379.1 
		66.6,379.1 74.2,392.1 66.6,405.2 	"/>
	<polygon fill="none" stroke="#FFFFFF" stroke-width="2" stroke-miterlimit="10" points="54,400.9 49,392.1 54,383.4 64.1,383.4 
		69.1,392.1 64.1,400.9 	"/>
	<polygon fill="none" stroke="#FFFFFF" stroke-width="2" stroke-miterlimit="10" points="56.5,396.5 54,392.1 56.5,387.8 
		61.6,387.8 64.1,392.1 61.6,396.5 	"/>
</g>
<g>
	<polygon fill="none" stroke="#FF0000" stroke-width="2" stroke-miterlimit="10" points="49,464.8 38.9,447.4 49,429.9 69.1,429.9 
		79.2,447.4 69.1,464.8 	"/>
	<polygon fill="none" stroke="#FF0000" stroke-width="2" stroke-miterlimit="10" points="51.5,460.4 43.9,447.4 51.5,434.3 
		66.6,434.3 74.2,447.4 66.6,460.4 	"/>
	<polygon fill="none" stroke="#FF0000" stroke-width="2" stroke-miterlimit="10" points="54,456.1 49,447.4 54,438.6 64.1,438.6 
		69.1,447.4 64.1,456.1 	"/>
	<polygon fill="none" stroke="#FF0000" stroke-width="2" stroke-miterlimit="10" points="56.5,451.7 54,447.4 56.5,443 61.6,443 
		64.1,447.4 61.6,451.7 	"/>
</g>
</svg>
